<svg xmlns="http://www.w3.org/2000/svg" width="124.46" height="154.514" viewBox="0 0 124.46 154.514">
  <g id="Group_3439" data-name="Group 3439" transform="translate(194.739 -1503.563)">
    <g id="agreement" transform="translate(-194.739 1524.01)">
      <g id="Group_3429" data-name="Group 3429">
        <g id="Group_3428" data-name="Group 3428" transform="translate(0)">
          <path id="Path_529" data-name="Path 529" d="M123.878,97.67l-14.47-17.851L99.74,67.89a1.734,1.734,0,0,0-2.811,0L84.859,82.78a2.874,2.874,0,0,0,0,3.468l1.2,1.485L83.3,91.147a5.368,5.368,0,0,1-6.935,1.5,14.31,14.31,0,0,0-15.308.7,11.005,11.005,0,0,0-7.781.512,5.369,5.369,0,0,1-6.563-1.7l-4.969-6.13.592-.73a2.874,2.874,0,0,0,0-3.468L30.263,66.945a1.734,1.734,0,0,0-2.811,0L.583,100.094a2.874,2.874,0,0,0,0,3.468l12.069,14.89a1.735,1.735,0,0,0,2.812,0l.72-.888,3.5,4.323a8.178,8.178,0,0,1,1.695,3.938,42.058,42.058,0,0,0,8.647,20.251l.66.814a10.415,10.415,0,0,0-1.384,9.557c1.129,3.24,3.715,5.339,6.574,5.337.119,0,.238,0,.358-.011a10.089,10.089,0,0,0,1.959,6.524,6.586,6.586,0,0,0,5.183,2.742c.053,0,.106,0,.159,0-.065,3.6,1.653,6.893,4.34,8.309a6.2,6.2,0,0,0,7.867-1.876c.114-.14.221-.286.326-.432,3.4,1.462,7.134-.666,8.435-4.812l.2.251a5.894,5.894,0,0,0,6.152,2.223,7.331,7.331,0,0,0,4.84-5.186,5.648,5.648,0,0,0,6.963.677,8.632,8.632,0,0,0,3.649-7.348,10.175,10.175,0,0,0-.188-1.949A7.263,7.263,0,0,0,91,155.837a9.893,9.893,0,0,0-.768-7.8l1.595-1.967a42.1,42.1,0,0,0,8.685-20.505,7.217,7.217,0,0,1,1.516-3.509l5.931-7.318L109,116.028a1.735,1.735,0,0,0,2.812,0l12.069-14.89a2.873,2.873,0,0,0,0-3.468ZM14.057,113.25,4.8,101.828,28.857,72.148l9.259,11.422Zm24.068,42.485a2.772,2.772,0,0,1-4.493,0,4.593,4.593,0,0,1,0-5.543,2.772,2.772,0,0,1,4.493,0,4.6,4.6,0,0,1,0,5.546Zm7.5,9.251a2.772,2.772,0,0,1-4.493,0,4.593,4.593,0,0,1,0-5.543,2.772,2.772,0,0,1,4.493,0,4.556,4.556,0,0,1,0,5.546ZM52.93,174a2.772,2.772,0,0,1-4.493,0,4.593,4.593,0,0,1,0-5.543,2.772,2.772,0,0,1,4.493,0,4.56,4.56,0,0,1,0,5.546Zm33.762-18.825a2.359,2.359,0,0,1-3.827,0L63.582,131.388a1.734,1.734,0,0,0-2.811,0,2.873,2.873,0,0,0,0,3.468L81.544,160.48a3.914,3.914,0,0,1,0,4.724,2.363,2.363,0,0,1-3.829,0l-3.506-4.323c-.019-.025-.038-.05-.059-.075l-.018-.021L58.023,140.913a1.734,1.734,0,0,0-2.811,0,2.874,2.874,0,0,0,0,3.468l16.16,19.937a3.912,3.912,0,0,1-.026,4.722,2.361,2.361,0,0,1-3.827-.033L50,147.388a1.734,1.734,0,0,0-2.811,0,2.874,2.874,0,0,0,0,3.468l12.989,16.025.01.014a3.93,3.93,0,0,1,.583,3.638,2.768,2.768,0,0,1-2.5,2.06,2.249,2.249,0,0,1-.513-.06,10.305,10.305,0,0,0-1.652-7.068,6.676,6.676,0,0,0-5.42-3.066c-.053,0-.106,0-.159,0a10.015,10.015,0,0,0-2.034-6.366,6.558,6.558,0,0,0-5.113-2.653q-.179,0-.357.011a9.843,9.843,0,0,0-2.553-7.207,6.173,6.173,0,0,0-6.2-1.823l-1.425-1.759a36.72,36.72,0,0,1-7.55-17.682,13.515,13.515,0,0,0-2.791-6.508l-3.506-4.323L38.93,89.5,43.9,95.629a9.254,9.254,0,0,0,7.173,3.617,8.676,8.676,0,0,0,3.559-.774,7.96,7.96,0,0,1,1.738-.55L44.059,113.107a11.524,11.524,0,0,0,0,13.91,6.957,6.957,0,0,0,11.276,0l6.181-7.627,1.673,2.066h0l.07.086.067.082h0v0l.057.068L86.693,150.45a3.915,3.915,0,0,1,0,4.724Zm12.521-36.584a12.551,12.551,0,0,0-2.619,6.112,36.761,36.761,0,0,1-7.583,17.9l-1.528,1.885L74.909,128.978c.273.025.548.041.824.041a8.495,8.495,0,0,0,3.873-.93,2.68,2.68,0,0,0,1.087-3.2A1.88,1.88,0,0,0,78.1,123.55c-5.116,2.582-11.25-4.534-11.932-5.355l-.035-.04-.07-.087h0L66,117.993h0l-1.673-2.066,1.9-2.341a2.873,2.873,0,0,0,0-3.468,1.734,1.734,0,0,0-2.811,0l-3.3,4.07,0,0,0,0-7.584,9.357a3.487,3.487,0,0,1-5.652,0,5.778,5.778,0,0,1,0-6.973l13.091-16.151c3.881-4.785,9.759-6.1,14.758-3.311,3.85,2.156,8.378,1.162,11.389-2.5L88.876,91.2l16.27,20.072Zm11.19-7.764L89.076,84.515l9.258-11.422L119.662,99.4Z" transform="translate(0 -66.227)" fill="#fff"/>
        </g>
      </g>
      <g id="Group_3431" data-name="Group 3431" transform="translate(108.297 40.35)">
        <g id="Group_3430" data-name="Group 3430" transform="translate(0 0)">
          <circle id="Ellipse_21" data-name="Ellipse 21" cx="1.9" cy="1.9" r="1.9" fill="#fff"/>
        </g>
      </g>
      <g id="Group_3433" data-name="Group 3433" transform="translate(13.287 42.163)">
        <g id="Group_3432" data-name="Group 3432" transform="translate(0 0)">
          <circle id="Ellipse_22" data-name="Ellipse 22" cx="1.9" cy="1.9" r="1.9" fill="#fff"/>
        </g>
      </g>
    </g>
    <path id="Path_538" data-name="Path 538" d="M.862,20.19a2.944,2.944,0,0,0,4.164,0L20.19,5.026A2.944,2.944,0,0,0,16.026.863L.862,16.027A2.945,2.945,0,0,0,.862,20.19Zm0,0" transform="translate(-167.24 1527.42) rotate(-79)" fill="#fff"/>
    <path id="Path_541" data-name="Path 541" d="M.862,20.19a2.944,2.944,0,0,0,4.164,0L20.19,5.026A2.944,2.944,0,0,0,16.026.863L.862,16.027A2.945,2.945,0,0,0,.862,20.19Zm0,0" transform="translate(-97.714 1637.91) rotate(107)" fill="#fff"/>
    <path id="Path_539" data-name="Path 539" d="M20.19,16.025,5.026.863A2.944,2.944,0,0,0,.863,5.026L16.025,20.19a2.944,2.944,0,0,0,4.164-4.164Zm0,0" transform="translate(-123.245 1524.307) rotate(-79)" fill="#fff"/>
    <path id="Path_542" data-name="Path 542" d="M20.19,16.025,5.026.863A2.944,2.944,0,0,0,.863,5.026L16.025,20.19a2.944,2.944,0,0,0,4.164-4.164Zm0,0" transform="translate(-141.793 1636.407) rotate(107)" fill="#fff"/>
    <path id="Path_540" data-name="Path 540" d="M0,2.944A2.944,2.944,0,0,0,2.944,5.888H12.59A2.944,2.944,0,0,0,12.59,0H2.944A2.945,2.945,0,0,0,0,2.944Zm0,0" transform="translate(-136.148 1518.812) rotate(-79)" fill="#fff"/>
    <path id="Path_543" data-name="Path 543" d="M0,2.944A2.944,2.944,0,0,0,2.944,5.888H12.59A2.944,2.944,0,0,0,12.59,0H2.944A2.945,2.945,0,0,0,0,2.944Zm0,0" transform="translate(-129.535 1643.221) rotate(107)" fill="#fff"/>
  </g>
</svg>
