<svg xmlns="http://www.w3.org/2000/svg" width="104.781" height="119.646" viewBox="0 0 104.781 119.646">
  <g id="creative-teaching" transform="translate(-17.735 -4.176)">
    <path id="Path_41" data-name="Path 41" d="M113.079,79.365a1.1,1.1,0,0,0-.155-.143A36.843,36.843,0,0,0,90.1,69.774v-1.3l.653-1.893a16.293,16.293,0,0,1,5.97-7.958c5.971-4.275,9.4-10.6,9.4-17.358,0-12.153-11.251-22.2-25.08-22.391a27.227,27.227,0,0,0-18.21,6.482,20.972,20.972,0,0,0-7.7,15.867c-.014,6.718,3.365,13.027,9.271,17.31a17.125,17.125,0,0,1,6.181,8.3l.566,1.639v1.3a36.846,36.846,0,0,0-22.826,9.448,1,1,0,0,0-.156.144,30.8,30.8,0,0,0-6.184,8.015H22.874a1.076,1.076,0,0,0-1.138,1v29.654a1.076,1.076,0,0,0,1.138,1h7.686a11.008,11.008,0,0,0,9.307,4.788H119.1a3.232,3.232,0,0,0,3.415-3v-20.56a28.585,28.585,0,0,0-9.437-20.9Z" fill="#e6e7e8"/>
    <path id="Path_42" data-name="Path 42" d="M42.579,41.061h3.286a1,1,0,0,0,0-2H42.579a1,1,0,0,0,0,2Z" transform="translate(3.348)" fill="#e6e7e8"/>
    <path id="Path_43" data-name="Path 43" d="M100.063,40.061a1,1,0,0,0,1,1h3.286a1,1,0,0,0,0-2h-3.286A1,1,0,0,0,100.063,40.061Z" transform="translate(12.251)" fill="#e6e7e8"/>
    <path id="Path_44" data-name="Path 44" d="M46.217,25.485l2.846,1.643a1,1,0,1,0,1-1.732l-2.846-1.643a1,1,0,1,0-1,1.732Z" transform="translate(3.91)" fill="#e6e7e8"/>
    <path id="Path_45" data-name="Path 45" d="M96.866,54.727l2.845,1.643a1,1,0,0,0,1-1.732l-2.845-1.643a1,1,0,0,0-1,1.732Z" transform="translate(12.251)" fill="#e6e7e8"/>
    <path id="Path_46" data-name="Path 46" d="M58.8,16.66a1,1,0,0,0,1.732-1l-1.643-2.845a1,1,0,0,0-1.732,1Z" transform="translate(5.415)" fill="#e6e7e8"/>
    <path id="Path_47" data-name="Path 47" d="M73.464,13.462a1,1,0,0,0,1-1V9.176a1,1,0,0,0-2,0v3.286A1,1,0,0,0,73.464,13.462Z" transform="translate(7.406)" fill="#e6e7e8"/>
    <path id="Path_48" data-name="Path 48" d="M49.062,52.995l-2.846,1.643a1,1,0,1,0,1,1.732l2.846-1.643a1,1,0,0,0-1-1.732Z" transform="translate(3.909)" fill="#e6e7e8"/>
    <path id="Path_49" data-name="Path 49" d="M97.367,27.262a1,1,0,0,0,.5-.134l2.845-1.643a1,1,0,0,0-1-1.732L96.866,25.4a1,1,0,0,0,.5,1.866Z" transform="translate(12.251)" fill="#e6e7e8"/>
    <path id="Path_50" data-name="Path 50" d="M86.764,17.026a1,1,0,0,0,1.366-.366l1.643-2.845a1,1,0,1,0-1.732-1L86.4,15.66A1,1,0,0,0,86.764,17.026Z" transform="translate(9.445)" fill="#e6e7e8"/>
    <path id="Path_51" data-name="Path 51" d="M75.695,66.695H63.233A29.57,29.57,0,0,0,36.156,84.382H58.279v29.654H41.232a8.383,8.383,0,0,1-7.568,4.788h69.6a2,2,0,0,0,2-2V96.264A29.57,29.57,0,0,0,75.695,66.7Z" transform="translate(12.251)" fill="#ffd7e5"/>
    <path id="Path_52" data-name="Path 52" d="M71.871,87.563H67.057l-2.549-6.626,2.549-4.078h4.814l2.549,4.078Z" transform="translate(6.936)" fill="#fa759e"/>
    <path id="Path_53" data-name="Path 53" d="M74.42,118.824H64.508l2.549-31.261h4.814Z" transform="translate(6.936)" fill="#fa759e"/>
    <path id="Path_54" data-name="Path 54" d="M90.82,37.268A21.357,21.357,0,0,0,69.81,15.914a21.573,21.573,0,0,0-21.7,21.314,21.3,21.3,0,0,0,7.766,16.508,18.223,18.223,0,0,1,5.763,8.8l.5,1.652H76.79l.578-1.906a17.378,17.378,0,0,1,5.581-8.461A21.3,21.3,0,0,0,90.82,37.268Z" transform="translate(7.469)" fill="#d4fbff"/>
    <path id="Path_55" data-name="Path 55" d="M69.811,18.914A21.341,21.341,0,0,1,90.752,38.9c.041-.538.069-1.079.069-1.627a21.357,21.357,0,0,0-21.01-21.354,21.573,21.573,0,0,0-21.7,21.314c0,.522.023,1.038.059,1.551A21.593,21.593,0,0,1,69.811,18.914Z" transform="translate(7.469)" fill="#fff"/>
    <path id="Path_56" data-name="Path 56" d="M69.464,32.143,62.6,42.957V64.189H76.33V42.957Z" transform="translate(6.975)" fill="#fa759e"/>
    <path id="Path_57" data-name="Path 57" d="M62.6,42.957a10.21,10.21,0,0,0,6.866,2.98,10.21,10.21,0,0,0,6.866-2.98L69.464,32.143Z" transform="translate(6.975)" fill="#ffd7e5"/>
    <path id="Path_58" data-name="Path 58" d="M70.895,76.938H68.034a5.893,5.893,0,0,1-5.893-5.893V64.19H76.789v6.855A5.9,5.9,0,0,1,70.895,76.938Z" transform="translate(6.985)" fill="#6dc9f7"/>
    <path id="Path_59" data-name="Path 59" d="M18.736,84.382v29.654H26.1a8.39,8.39,0,1,1,15.138,0H58.28V84.382Z" fill="#0089ef"/>
    <path id="Path_60" data-name="Path 60" d="M43.208,89.681h9.858v5.3H43.208Z" transform="translate(3.775)" fill="#fff"/>
    <circle id="Ellipse_3" data-name="Ellipse 3" cx="8.39" cy="8.39" r="8.39" transform="translate(25.273 102.044)" fill="#fff"/>
    <g id="Group_1" data-name="Group 1" transform="translate(17.735 4.176)">
      <path id="Path_61" data-name="Path 61" d="M109.093,75.383a1,1,0,0,0-.168-.16A36.856,36.856,0,0,0,86.1,65.783V64.347l.612-1.774A16.329,16.329,0,0,1,92.693,54.6c5.961-4.268,9.379-10.584,9.379-17.329,0-12.133-11.231-22.161-25.038-22.354a27.2,27.2,0,0,0-18.179,6.472,20.936,20.936,0,0,0-7.684,15.84c-.014,6.706,3.359,13.005,9.254,17.281a17.147,17.147,0,0,1,6.2,8.32l.525,1.52v1.448a36.84,36.84,0,0,0-22.8,9.411,1.076,1.076,0,0,0-.192.168A30.76,30.76,0,0,0,38,83.382H18.873a1.076,1.076,0,0,0-1.138,1v29.654a1.076,1.076,0,0,0,1.138,1H26.56a11.006,11.006,0,0,0,9.306,4.788H115.1a3.232,3.232,0,0,0,3.415-3V96.264a28.56,28.56,0,0,0-9.421-20.881ZM78.581,86.563H74.665l-2.417-5.519,2.227-3.129c.173.01.345.023.52.023h3.257c.175,0,.347-.013.52-.023L81,81.044ZM42.52,103.1V85.382H62.75v27.654H46.13a8.3,8.3,0,0,0,.427-2.6A9.006,9.006,0,0,0,42.52,103.1ZM66.681,67.826l.466.711v2.507a6.917,6.917,0,0,0,4.6,6.269l-6.027,5.179L62.594,68.374a36.641,36.641,0,0,1,4.087-.548Zm9.274-32.9h1.333l5.678,7.856a10.424,10.424,0,0,1-12.686,0ZM79.13,75.859H74.115a5.133,5.133,0,0,1-4.691-4.815V65.189h14.4v5.855A5.131,5.131,0,0,1,79.13,75.859Zm-3.646-28.98v16.31H69.945V45.061a13.426,13.426,0,0,0,5.539,1.818ZM83.3,45.061V63.189H77.761V46.879A13.426,13.426,0,0,0,83.3,45.061ZM63.6,83.382H55.064a17.115,17.115,0,0,0-8.07-7.667,33.767,33.767,0,0,1,13.392-6.846Zm.287,31.654a1.076,1.076,0,0,0,1.138-1V85.5a1.221,1.221,0,0,0,.779-.282l4.237-3.641,2.684,6.131-2.795,30.114H56.669v-2.788h7.22ZM81.528,77.3A6.91,6.91,0,0,0,86.1,71.045V68.6l.515-.787a36.53,36.53,0,0,1,4.082.557L87.57,82.493ZM61.876,52.965A19.424,19.424,0,0,1,53.448,37.23a19.062,19.062,0,0,1,7-14.417A24.634,24.634,0,0,1,77,16.915c12.571.175,22.8,9.306,22.8,20.353a19.441,19.441,0,0,1-8.541,15.779,18.475,18.475,0,0,0-5.678,6.524V42.957c0-.008,0-.015,0-.022,0-.023-.009-.044-.011-.067a.869.869,0,0,0-.072-.27c-.015-.032-.03-.062-.048-.094a.838.838,0,0,0-.043-.083L77.76,31.852V29.906a1.148,1.148,0,0,0-2.277,0v1.946L67.845,42.421c-.018.026-.027.056-.043.083a.747.747,0,0,0-.048.094.868.868,0,0,0-.072.27c0,.023-.01.044-.011.067,0,.007,0,.014,0,.022V59.629a19.289,19.289,0,0,0-5.791-6.664ZM45.335,77.224a15.284,15.284,0,0,1,7.212,6.158H40.532A28.83,28.83,0,0,1,45.335,77.224ZM20.012,113.036V85.382h20.23v16.5a11.866,11.866,0,0,0-4.376-.832c-5.893,0-10.688,4.212-10.688,9.39a8.278,8.278,0,0,0,.427,2.6H20.012Zm7.444-2.6c0-4.075,3.774-7.39,8.412-7.39s8.413,3.315,8.413,7.39-3.774,7.39-8.413,7.39S27.456,114.509,27.456,110.434Zm17.719,4.6h9.218v2.788H42.439A9.937,9.937,0,0,0,45.175,115.036Zm27.041,2.788,2.715-29.261h3.382l2.715,29.261Zm44.023-1a1.078,1.078,0,0,1-1.138,1H98.853v-9.477a1.148,1.148,0,0,0-2.277,0v9.477H83.313L80.518,87.71l2.7-6.161,4.272,3.671a1.221,1.221,0,0,0,.8.285,1.305,1.305,0,0,0,.339-.045A1.057,1.057,0,0,0,89.4,84.7l3.5-15.831a33.8,33.8,0,0,1,13.36,6.842c-5.932,2.795-9.688,8.225-9.688,14.221v4.019a1.148,1.148,0,0,0,2.277,0V89.928c0-5.444,3.535-10.355,9.065-12.716a26.6,26.6,0,0,1,8.32,19.052v20.56Z" transform="translate(-17.735 -4.176)" fill="#3a2c60"/>
      <path id="Path_62" data-name="Path 62" d="M87.992,97.4a1,1,0,0,0-1,1v5.788a1,1,0,0,0,2,0V98.4A1,1,0,0,0,87.992,97.4Z" transform="translate(-7.929 -4.176)" fill="#3a2c60"/>
      <path id="Path_63" data-name="Path 63" d="M38.579,37.061h3.286a1,1,0,0,0,0-2H38.579a1,1,0,0,0,0,2Z" transform="translate(-14.814 -4.176)" fill="#3a2c60"/>
      <path id="Path_64" data-name="Path 64" d="M96.063,36.061a1,1,0,0,0,1,1h3.286a1,1,0,0,0,0-2H97.063A1,1,0,0,0,96.063,36.061Z" transform="translate(-5.484 -4.176)" fill="#3a2c60"/>
      <path id="Path_65" data-name="Path 65" d="M42.217,21.485l2.845,1.643a1,1,0,1,0,1-1.732l-2.845-1.643a1,1,0,1,0-1,1.732Z" transform="translate(-14.224 -4.176)" fill="#3a2c60"/>
      <path id="Path_66" data-name="Path 66" d="M96.711,50.637l-2.846-1.643a1,1,0,0,0-1,1.732l2.846,1.643a1,1,0,0,0,1-1.732Z" transform="translate(-5.484 -4.176)" fill="#3a2c60"/>
      <path id="Path_67" data-name="Path 67" d="M54.8,12.66a1,1,0,0,0,1.732-1L54.887,8.814a1,1,0,1,0-1.731,1Z" transform="translate(-12.642 -4.176)" fill="#3a2c60"/>
      <path id="Path_68" data-name="Path 68" d="M69.464,9.462a1,1,0,0,0,1-1V5.176a1,1,0,0,0-2,0V8.462A1,1,0,0,0,69.464,9.462Z" transform="translate(-10.552 -4.176)" fill="#3a2c60"/>
      <path id="Path_69" data-name="Path 69" d="M45.062,48.995l-2.845,1.643a1,1,0,1,0,1,1.732l2.845-1.643a1,1,0,0,0-1-1.732Z" transform="translate(-14.224 -4.176)" fill="#3a2c60"/>
      <path id="Path_70" data-name="Path 70" d="M93.366,23.262a1,1,0,0,0,.5-.134l2.846-1.643a1,1,0,0,0-1-1.732L92.865,21.4a1,1,0,0,0,.5,1.866Z" transform="translate(-5.484 -4.176)" fill="#3a2c60"/>
      <path id="Path_71" data-name="Path 71" d="M82.763,13.026a1,1,0,0,0,1.366-.366l1.643-2.846a1,1,0,1,0-1.732-1L82.4,11.66A1,1,0,0,0,82.763,13.026Z" transform="translate(-8.422 -4.176)" fill="#3a2c60"/>
    </g>
  </g>
</svg>
