<svg id="loandetails" xmlns="http://www.w3.org/2000/svg" width="118.988" height="157.158" viewBox="0 0 118.988 157.158">
  <path id="Path_530" data-name="Path 530" d="M118.983,30.741c0-.033,0-.067-.005-.1a2.683,2.683,0,0,0-.056-.393h0a2.9,2.9,0,0,0-.121-.382c-.012-.031-.025-.063-.038-.094a3.114,3.114,0,0,0-.175-.348l-.011-.018a2.981,2.981,0,0,0-.244-.338c-.022-.027-.046-.054-.069-.08a3.262,3.262,0,0,0-.306-.31L86.01.9a3.476,3.476,0,0,0-.356-.266c-.032-.02-.063-.042-.1-.061a3.454,3.454,0,0,0-.386-.211c-.01,0-.019-.007-.027-.012A4,4,0,0,0,84.752.2L84.64.166A4.047,4.047,0,0,0,84.2.06h0A4.279,4.279,0,0,0,83.75.011c-.038,0-.077,0-.116,0S83.554,0,83.514,0H3.53A3.322,3.322,0,0,0,0,3.067V134.45a3.322,3.322,0,0,0,3.53,3.067H56.679v16.568a3.033,3.033,0,0,0,1.822,2.686,3.992,3.992,0,0,0,3.585-.085l13.445-7.334,13.447,7.335a3.988,3.988,0,0,0,3.586.088,3.03,3.03,0,0,0,1.82-2.688V137.518H115.46a3.322,3.322,0,0,0,3.528-3.067V30.846c0-.035,0-.07-.006-.1ZM87.044,10.48l19.894,17.3H87.044ZM54.938,94.807a8.528,8.528,0,0,1-.662-1.936,10.562,10.562,0,0,1,1.819-1.145,12.564,12.564,0,0,0,3.718-2.7,10.312,10.312,0,0,0,1.844-3.93,9.028,9.028,0,0,1,.656-1.779,5.067,5.067,0,0,1,.874-.055c.393,0,.833.019,1.3.04.535.023,1.087.047,1.663.047a11.413,11.413,0,0,0,3.228-.394,13.765,13.765,0,0,0,4.074-2.183,9.186,9.186,0,0,1,2.066-1.233,8.584,8.584,0,0,1,2.1,1.233,13.759,13.759,0,0,0,4.075,2.183,11.406,11.406,0,0,0,3.228.394c.575,0,1.128-.024,1.662-.047.466-.02.906-.04,1.3-.04a4.95,4.95,0,0,1,.874.055,8.943,8.943,0,0,1,.654,1.78,10.316,10.316,0,0,0,1.845,3.93,12.564,12.564,0,0,0,3.718,2.7,10.672,10.672,0,0,1,1.818,1.145,8.585,8.585,0,0,1-.661,1.937,10.855,10.855,0,0,0-1.12,4.216,10.914,10.914,0,0,0,1.118,4.217,8.53,8.53,0,0,1,.662,1.937,10.673,10.673,0,0,1-1.818,1.145,12.529,12.529,0,0,0-3.718,2.7,10.316,10.316,0,0,0-1.845,3.93,9.058,9.058,0,0,1-.654,1.78,5.079,5.079,0,0,1-.874.055c-.394,0-.834-.019-1.3-.04-.534-.023-1.087-.047-1.662-.047a11.406,11.406,0,0,0-3.228.394,13.8,13.8,0,0,0-4.075,2.183,9.007,9.007,0,0,1-2.082,1.231,8.984,8.984,0,0,1-2.081-1.231,13.826,13.826,0,0,0-4.075-2.183,11.413,11.413,0,0,0-3.228-.394c-.575,0-1.128.024-1.663.047-.465.02-.9.04-1.3.04a5.078,5.078,0,0,1-.874-.055,9.026,9.026,0,0,1-.655-1.779,10.292,10.292,0,0,0-1.844-3.93,12.543,12.543,0,0,0-3.718-2.7,10.6,10.6,0,0,1-1.818-1.145,8.6,8.6,0,0,1,.661-1.937,10.854,10.854,0,0,0,1.12-4.216,10.885,10.885,0,0,0-1.12-4.217Zm32.386,53.731-9.915-5.409a3.994,3.994,0,0,0-3.754,0l-9.915,5.409V120.915c.375-.01.743-.022,1.1-.037.467-.022.909-.04,1.307-.04a3.965,3.965,0,0,1,1,.08,9.637,9.637,0,0,1,1.879,1.143c1.649,1.155,3.7,2.589,6.509,2.589s4.861-1.434,6.509-2.589a9.6,9.6,0,0,1,1.879-1.141,3.987,3.987,0,0,1,1-.08c.4,0,.84.019,1.307.04.357.016.725.029,1.1.037v27.623Zm7.06-17.157V118.442a10.415,10.415,0,0,0,1.859-3.954,7.209,7.209,0,0,1,.7-1.837,9.222,9.222,0,0,1,1.794-1.14c1.737-.956,3.9-2.142,4.759-4.39.849-2.217-.034-4.312-.745-6a7.48,7.48,0,0,1-.687-2.1,7.475,7.475,0,0,1,.687-2.1c.71-1.684,1.594-3.779.745-6-.859-2.246-3.021-3.434-4.759-4.388A9.34,9.34,0,0,1,96.946,85.4a7.239,7.239,0,0,1-.7-1.838c-.508-1.709-1.139-3.836-3.3-5.214a9.36,9.36,0,0,0-5.064-1.223c-.571,0-1.123.024-1.655.048-.467.02-.909.04-1.306.04a3.97,3.97,0,0,1-1-.08,9.556,9.556,0,0,1-1.879-1.143c-1.649-1.152-3.7-2.589-6.51-2.589s-4.861,1.434-6.509,2.589a9.615,9.615,0,0,1-1.879,1.143,3.98,3.98,0,0,1-1,.08c-.4,0-.84-.019-1.307-.04-.532-.023-1.083-.047-1.655-.047a9.351,9.351,0,0,0-5.061,1.223c-2.164,1.379-2.795,3.506-3.3,5.214a7.266,7.266,0,0,1-.7,1.837,9.34,9.34,0,0,1-1.8,1.14c-1.737.956-3.9,2.142-4.759,4.388-.849,2.218.034,4.313.745,6a7.475,7.475,0,0,1,.687,2.1,7.481,7.481,0,0,1-.687,2.1c-.71,1.684-1.594,3.778-.745,6,.86,2.246,3.024,3.434,4.759,4.388a9.3,9.3,0,0,1,1.8,1.14,7.266,7.266,0,0,1,.7,1.837,10.406,10.406,0,0,0,1.86,3.954v12.938H7.06V6.139H79.983V30.846a2.879,2.879,0,0,0,1.033,2.171,3.814,3.814,0,0,0,2.5.9h28.414V131.38Zm0,0" transform="translate(0 0)" fill="#fff" fill-rule="evenodd"/>
  <path id="Path_531" data-name="Path 531" d="M51.932,96.629H91.478a3.069,3.069,0,1,0,0-6.139H51.932a3.069,3.069,0,1,0,0,6.139Zm0,0" transform="translate(-33.865 -62.715)" fill="#fff" fill-rule="evenodd"/>
  <path id="Path_532" data-name="Path 532" d="M134.483,140.969h-81.9c-2.052,0-3.715,1.374-3.715,3.069s1.663,3.069,3.715,3.069h81.9c2.052,0,3.715-1.374,3.715-3.069s-1.663-3.069-3.715-3.069Zm0,0" transform="translate(-33.865 -97.699)" fill="#fff" fill-rule="evenodd"/>
  <path id="Path_533" data-name="Path 533" d="M107.319,191.445H51.933a3.069,3.069,0,0,0,0,6.139h55.386a3.069,3.069,0,0,0,0-6.139Zm0,0" transform="translate(-33.865 -132.682)" fill="#fff" fill-rule="evenodd"/>
  <path id="Path_534" data-name="Path 534" d="M272.378,191.445a3.069,3.069,0,1,0,3.069,3.069,3.069,3.069,0,0,0-3.069-3.069Zm0,0" transform="translate(-171.115 -132.682)" fill="#fff" fill-rule="evenodd"/>
</svg>
