<svg xmlns="http://www.w3.org/2000/svg" xmlns:xlink="http://www.w3.org/1999/xlink" width="119" height="161" viewBox="0 0 119 161">
  <defs>
    <clipPath id="clip-path">
      <rect id="Rectangle_45" data-name="Rectangle 45" width="119" height="161" transform="translate(14790 -2688)" fill="#fff"/>
    </clipPath>
  </defs>
  <g id="Mask_Group_18" data-name="Mask Group 18" transform="translate(-14790 2688)" clip-path="url(#clip-path)">
    <g id="logout" transform="translate(14821.5 -2636)">
      <path id="Path_544" data-name="Path 544" d="M30.361,55.99a3.861,3.861,0,0,0,3.861-3.861V3.861a3.861,3.861,0,1,0-7.723,0V52.129A3.861,3.861,0,0,0,30.361,55.99Z" transform="translate(-1.862 -26.525)" fill="#fff"/>
      <path id="Path_545" data-name="Path 545" d="M102.738,51.159c-.014-.176-.025-.353-.041-.529A50.217,50.217,0,0,0,71.028,8.249c-.178-.07-.351-.141-.529-.209Q68.808,7.4,67.062,6.882c-.085-.025-.166-.06-.251-.085h-.069a50.21,50.21,0,0,0-7.286-1.552v7.8a42.475,42.475,0,1,1-13.515,0v-7.8a50.5,50.5,0,0,0-7.225,1.518h-.071c-.091.027-.176.062-.265.089q-1.749.517-3.442,1.158c-.174.066-.344.137-.517.2a49.888,49.888,0,0,0-6.978,3.375l-.06.033a50.2,50.2,0,0,0-24.69,39c-.015.176-.027.353-.041.531-.089,1.261-.153,2.531-.153,3.817a50.2,50.2,0,1,0,100.4,0C102.9,53.688,102.832,52.418,102.738,51.159Z" transform="translate(-24.198 -21.645)" fill="#fff"/>
    </g>
  </g>
</svg>

