<svg xmlns="http://www.w3.org/2000/svg" width="118.983" height="150.153" viewBox="0 0 118.983 150.153">
  <g id="money-bag_3_" data-name="money-bag (3)" transform="translate(-0.5 0)">
    <path id="Path_518" data-name="Path 518" d="M296.251,104.733a2.944,2.944,0,0,0,4.164,0l15.164-15.164a2.944,2.944,0,0,0-4.164-4.163L296.251,100.57A2.945,2.945,0,0,0,296.251,104.733Zm0,0" transform="translate(-208.408 -59.75)" fill="#fff"/>
    <path id="Path_519" data-name="Path 519" d="M354.623,245.8,339.459,230.64A2.944,2.944,0,1,0,335.3,234.8l15.163,15.164a2.944,2.944,0,0,0,4.164-4.164Zm0,0" transform="translate(-236.001 -162.391)" fill="#fff"/>
    <path id="Path_520" data-name="Path 520" d="M55.568,104.733a2.945,2.945,0,1,0,4.164-4.164L44.568,85.406A2.944,2.944,0,1,0,40.4,89.569Zm0,0" transform="translate(-27.592 -59.75)" fill="#fff"/>
    <path id="Path_521" data-name="Path 521" d="M20.69,230.64a2.944,2.944,0,0,0-4.164,0L1.363,245.8a2.944,2.944,0,1,0,4.163,4.164L20.69,234.8a2.943,2.943,0,0,0,0-4.163Zm0,0" transform="translate(0 -162.392)" fill="#fff"/>
    <path id="Path_522" data-name="Path 522" d="M95.5,58.713a8.6,8.6,0,0,0,2.118-4.3,10.035,10.035,0,0,0-2.253-8.867c2.4-5.487,7.78-17.81,9.582-22.041a2.944,2.944,0,0,0-.627-3.235,39.616,39.616,0,0,0-12.114-8.3l.976-4.376a2.942,2.942,0,0,0-1.329-3.147,30.235,30.235,0,0,0-31.569,0A2.944,2.944,0,0,0,58.963,7.62l1.008,4.334a39.6,39.6,0,0,0-12.151,8.32,2.943,2.943,0,0,0-.628,3.235c1.8,4.233,7.186,16.555,9.582,22.041a10.035,10.035,0,0,0-2.252,8.867,8.57,8.57,0,0,0,2.112,4.3L30.028,97.608c-6.936,10.137-8.144,21.022-3.4,30.651,2.974,6.035,8.17,11.225,15.025,15.013a57.443,57.443,0,0,0,24.482,6.605c3.295.182,6.637.275,9.934.275s6.64-.093,9.934-.274a57.455,57.455,0,0,0,24.481-6.607c6.856-3.787,12.053-8.978,15.027-15.013,4.745-9.629,3.538-20.514-3.4-30.651Zm-6.689-5.565A33.681,33.681,0,0,0,77.06,50.53a32.338,32.338,0,0,0-11.628,1.813c-1.036.356-2.053.766-3.052,1.215-.516.233-1.024.481-1.532.732-.127.063-.124.089-.207,0a.869.869,0,0,1-.118-.253,4.257,4.257,0,0,1-.228-.774A4.438,4.438,0,0,1,60.9,49.73a35.8,35.8,0,0,1,5.865-2.469,30.257,30.257,0,0,1,17.846-.234,35.657,35.657,0,0,1,6.626,2.7,4.44,4.44,0,0,1,.606,3.535,3.961,3.961,0,0,1-.286.91c-.071.15-.072.211-.23.133s-.328-.163-.493-.243q-1-.488-2.023-.918Zm9.914-30.063c-1.907,4.447-7.733,17.762-8.557,19.652l-.011,0A39.536,39.536,0,0,0,85.685,41.2L90.9,17.844a33.7,33.7,0,0,1,7.831,5.24ZM76.071,5.888A24.251,24.251,0,0,1,86.96,8.453l-1.024,4.589c-.007.026-.016.052-.022.078L79.878,40.086a35.258,35.258,0,0,0-7.325-.033L65.2,8.444A24.253,24.253,0,0,1,76.071,5.888ZM61.331,17.8l5.422,23.316a39.691,39.691,0,0,0-4.746,1.6l-.034.014c-.825-1.887-6.649-15.2-8.557-19.652A33.667,33.667,0,0,1,61.331,17.8Zm58.9,107.854c-5.137,10.422-18.375,17.452-34.55,18.343-3.188.175-6.421.265-9.61.265s-6.423-.089-9.61-.265c-16.176-.891-29.414-7.921-34.551-18.343-3.763-7.636-2.706-16.417,2.977-24.724L63.039,59.784A29.256,29.256,0,0,1,72.81,56.64a26.028,26.028,0,0,1,10.735.883A31.251,31.251,0,0,1,89.1,59.785l28.151,41.148c5.683,8.307,6.741,17.086,2.977,24.724Zm0,0" transform="translate(-16.452)" fill="#fff"/>
    <path id="Path_524" data-name="Path 524" d="M344.434,185.956a2.944,2.944,0,0,0,2.944,2.944h9.646a2.944,2.944,0,0,0,0-5.888h-9.646A2.945,2.945,0,0,0,344.434,185.956Zm0,0" transform="translate(-243.069 -129.341)" fill="#fff"/>
    <path id="Path_525" data-name="Path 525" d="M309.593,184.335a2.942,2.942,0,1,0-.365,3.715,2.968,2.968,0,0,0,.365-3.715Zm0,0" transform="translate(-214.636 -129.353)" fill="#fff"/>
    <path id="Path_526" data-name="Path 526" d="M11.995,188.9h9.646a2.944,2.944,0,0,0,0-5.888H11.995a2.944,2.944,0,0,0,0,5.888Zm0,0" transform="translate(-6.043 -129.341)" fill="#fff"/>
    <path id="Path_527" data-name="Path 527" d="M87.567,184.335a2.942,2.942,0,1,0-.333,3.682,2.969,2.969,0,0,0,.333-3.682Zm0,0" transform="translate(-57.723 -129.352)" fill="#fff"/>
    <path id="Path_528" data-name="Path 528" d="M213.437,204.459h-.128l-9.207-.1a2.031,2.031,0,0,0-1.433,3.493l22.778,21.991a2.031,2.031,0,1,0,2.822-2.923l-19.1-18.444,4.1.044h.172a15.858,15.858,0,0,0,15.676-13.637l7.267.078h.022a2.032,2.032,0,1,0,.021-4.063l-7.267-.078a15.816,15.816,0,0,0-5.019-9.8l12.392.133h.022a2.032,2.032,0,0,0,.022-4.063l-22.968-.246h0l-9.207-.1a2.032,2.032,0,1,0-.044,4.063l9.207.1a11.791,11.791,0,0,1,11.49,9.866l-20.8-.223h-.022a2.031,2.031,0,1,0-.021,4.063l20.8.223A11.79,11.79,0,0,1,213.437,204.459Z" transform="translate(-159.589 -96.766)" fill="#fff" stroke="#fff" stroke-width="2"/>
  </g>
</svg>
