<svg xmlns="http://www.w3.org/2000/svg" width="419.303" height="526.999" viewBox="0 0 419.303 526.999">
  <g id="notification" transform="translate(-46.348 7.5)">
    <g id="Group_34" data-name="Group 34">
      <g id="Group_33" data-name="Group 33">
        <path id="Path_6" data-name="Path 6" d="M442.881,378.052a52.311,52.311,0,0,1-17.034-38.495V240a10,10,0,0,0-20,0v99.558a72.356,72.356,0,0,0,23.54,53.257A26,26,0,0,1,411.849,438h-312a26,26,0,0,1-17.538-45.186,72.356,72.356,0,0,0,23.54-53.257V224c0-82.71,67.29-150,150-150a150.124,150.124,0,0,1,65.446,15.012A74.069,74.069,0,1,0,334.428,73.24,169.569,169.569,0,0,0,287.018,56.9a37,37,0,1,0-62.353-.019C145.769,71.562,85.848,140.91,85.848,224V339.557a52.308,52.308,0,0,1-17.034,38.495A45.995,45.995,0,0,0,99.846,458h92.788a64,64,0,0,0,126.428,0H411.85a45.994,45.994,0,0,0,31.031-79.947ZM384.15,74a54,54,0,1,1-54,54A54.061,54.061,0,0,1,384.15,74Zm-128.3-54a17,17,0,1,1-17,17A17.019,17.019,0,0,1,255.848,20Zm0,472a44.068,44.068,0,0,1-42.84-34h85.68A44.068,44.068,0,0,1,255.848,492Z" fill="#004788" stroke="#004788" stroke-width="15"/>
      </g>
    </g>
    <g id="Group_36" data-name="Group 36">
      <g id="Group_35" data-name="Group 35">
        <path id="Path_7" data-name="Path 7" d="M143.848,213.791a10,10,0,0,0-10,10V224a10,10,0,0,0,20,0v-.208A10,10,0,0,0,143.848,213.791Z" fill="#004788"/>
      </g>
    </g>
    <g id="Group_38" data-name="Group 38">
      <g id="Group_37" data-name="Group 37">
        <path id="Path_8" data-name="Path 8" d="M255.848,102A121.85,121.85,0,0,0,143.5,176.361a10,10,0,1,0,18.41,7.815A101.884,101.884,0,0,1,255.848,122a10,10,0,1,0,0-20Z" fill="#004788"/>
      </g>
    </g>
    <g id="Group_40" data-name="Group 40">
      <g id="Group_39" data-name="Group 39">
        <path id="Path_9" data-name="Path 9" d="M387.675,95.593a10.008,10.008,0,0,0-10.9,2.168l-11.5,11.5a10,10,0,0,0,8.571,16.959v18.112a10,10,0,0,0,20,0v-39.5A10,10,0,0,0,387.675,95.593Z" fill="#004788"/>
      </g>
    </g>
  </g>
</svg>
